<svg xmlns="http://www.w3.org/2000/svg" width="597.685" height="307.329"><linearGradient id="a" gradientUnits="userSpaceOnUse" x1="-25.016" y1="40.991" x2="179.028" y2="212.204"><stop offset="0" stop-color="#07749d"/><stop offset="1" stop-color="#00394f"/></linearGradient><path d="M50.665 62.912v35.176a8.022 8.022 0 0 0 8.022 8.022h87.126a8.022 8.022 0 0 1 8.022 8.022v35.175a8.022 8.022 0 0 1-8.022 8.022H58.687a8.022 8.022 0 0 0-8.022 8.022v24.932a8.022 8.022 0 0 0 8.022 8.022h87.126a8.022 8.022 0 0 1 8.022 8.022v32.98a8.022 8.022 0 0 1-8.022 8.022H8.2a8.022 8.022 0 0 1-8.022-8.022V13.887A8.022 8.022 0 0 1 8.2 5.866h137.614a8.022 8.022 0 0 1 8.022 8.022v32.98a8.022 8.022 0 0 1-8.022 8.022H58.687a8.022 8.022 0 0 0-8.022 8.022z" fill="url(#a)"/><linearGradient id="b" gradientUnits="userSpaceOnUse" x1="329.445" y1="126.597" x2="175.786" y2="126.597"><stop offset="0" stop-color="#07749d"/><stop offset="1" stop-color="#00394f"/></linearGradient><path d="M226.274 62.912v35.176a8.022 8.022 0 0 0 8.022 8.022h87.127a8.022 8.022 0 0 1 8.022 8.022v35.175a8.022 8.022 0 0 1-8.022 8.022h-87.127a8.022 8.022 0 0 0-8.022 8.022v24.932a8.022 8.022 0 0 0 8.022 8.022h87.127a8.022 8.022 0 0 1 8.022 8.022v32.98a8.022 8.022 0 0 1-8.022 8.022H183.809a8.022 8.022 0 0 1-8.023-8.022V13.887a8.022 8.022 0 0 1 8.023-8.021h137.614a8.022 8.022 0 0 1 8.022 8.022v32.98a8.022 8.022 0 0 1-8.022 8.022h-87.127a8.022 8.022 0 0 0-8.022 8.022z" fill="url(#b)"/><linearGradient id="c" gradientUnits="userSpaceOnUse" x1="356.035" y1="-10.018" x2="585.302" y2="263.212"><stop offset=".412" stop-color="#07749d"/><stop offset=".805" stop-color="#00394f"/></linearGradient><path fill="url(#c)" d="M344.082.011h253.172v253.172H344.082z"/><path d="M494.3 61.524h75.51a6.952 6.952 0 0 0 6.952-6.952V25.989a6.952 6.952 0 0 0-6.953-6.952H450.543a6.952 6.952 0 0 0-6.952 6.952v195.363a6.952 6.952 0 0 0 6.952 6.953H569.81a6.952 6.952 0 0 0 6.953-6.953V192.77a6.952 6.952 0 0 0-6.953-6.952H494.3a6.953 6.953 0 0 1-6.952-6.953v-21.607a6.952 6.952 0 0 1 6.953-6.952h75.51a6.952 6.952 0 0 0 6.952-6.953v-30.485a6.952 6.952 0 0 0-6.953-6.953H494.3a6.952 6.952 0 0 1-6.952-6.952V68.477a6.952 6.952 0 0 1 6.953-6.953zm-88.146-42.487h-31.955a5.242 5.242 0 0 0-5.242 5.242v198.784a5.242 5.242 0 0 0 5.242 5.242h31.955a5.242 5.242 0 0 0 5.242-5.242V24.279a5.242 5.242 0 0 0-5.242-5.242z" fill="#fff"/><path d="M73.692 125.435l-3.271-9.813-3.271 9.813h-9.986l8.35 6.543-3.271 9.985 8.178-6.714 8.178 6.714-3.272-9.985 8.35-6.543h-9.985zm52.683 92.626l-3.271-9.814-3.272 9.814h-9.985l8.35 6.542-3.271 9.986 8.178-6.715 8.177 6.715-3.27-9.986 8.35-6.542h-9.986zm-9.986-172.253l8.178-6.714 8.178 6.714-3.271-9.985 8.35-6.543h-9.986l-3.271-9.813-3.271 9.813h-9.986l8.35 6.543-3.271 9.985z" fill="#ffb824"/><path d="M221.497 218.06l-3.272-9.813-3.27 9.814h-9.986l8.35 6.542-3.272 9.986 8.178-6.715 8.178 6.715-3.27-9.986 8.35-6.542h-9.986zm64.131-92.194h-9.985l-3.271-9.814-3.271 9.814h-9.986l8.35 6.542-3.271 9.986 8.178-6.715 8.178 6.715-3.272-9.986 8.35-6.542zm-77.044-78.594l8.178-6.715 8.178 6.715-3.271-9.986 8.35-6.542h-9.986l-3.271-9.814-3.271 9.814h-9.986l8.35 6.542-3.271 9.986z" fill="#fed437"/><path d="M596.95.01V0H226.278l1.465 5.86 12.254 49.027 12.807 51.218 12.807 51.23 10.246 40.972 6.762 27.069 46.237-22.055 15.227-7.272 24.877-11.863 42.438-20.253 32.192-15.357 89.423-42.666L596.95 75.4l.304-.14V.01h-.304zM0 0v279.525h39.692l12.84-32.192 19.558-49.026 16.345-40.973 20.449-51.229 20.426-51.218 19.352-48.494L151.213 0H0z" opacity=".2" fill="#fff"/><path d="M10.011 263.47h-3.11l-2.264 3.293h2.15l3.224-3.293zm-6.61 13.584h7.433v-2.607H3.402v-3.98h7.844v-2.607H.52v16.192h11.138v-2.608H3.402v-4.39zm20.708 4.334a4.18 4.18 0 0 1-1.91.468c-.838 0-1.597-.152-2.275-.457a5.285 5.285 0 0 1-1.75-1.258 5.648 5.648 0 0 1-1.131-1.898 6.954 6.954 0 0 1-.4-2.401c0-.808.133-1.563.4-2.264a5.601 5.601 0 0 1 1.132-1.84 5.212 5.212 0 0 1 1.75-1.236c.677-.297 1.436-.446 2.275-.446.564 0 1.124.107 1.68.32.557.214 1.133.64 1.727 1.281l2.242-1.646c-.809-.93-1.682-1.59-2.62-1.979s-1.954-.583-3.052-.583c-1.25 0-2.398.202-3.442.606a7.788 7.788 0 0 0-2.698 1.726c-.755.748-1.346 1.651-1.772 2.71-.428 1.06-.641 2.238-.641 3.533 0 1.266.213 2.417.64 3.453a7.872 7.872 0 0 0 1.773 2.665 7.861 7.861 0 0 0 2.698 1.715c1.044.404 2.192.607 3.442.607 1.19 0 2.31-.23 3.362-.687 1.052-.457 1.943-1.19 2.675-2.195l-2.378-1.692c-.534.686-1.109 1.185-1.727 1.498zm19.93-11.675a7.599 7.599 0 0 0-2.72-1.703c-1.053-.39-2.212-.577-3.477-.56-1.25 0-2.398.201-3.442.605a7.788 7.788 0 0 0-2.698 1.726c-.755.748-1.346 1.651-1.772 2.71-.428 1.06-.641 2.238-.641 3.533 0 1.266.213 2.417.64 3.453a7.872 7.872 0 0 0 1.773 2.665 7.861 7.861 0 0 0 2.698 1.715c1.044.404 2.192.607 3.442.607 1.265-.016 2.424-.234 3.476-.653a8.147 8.147 0 0 0 2.722-1.749c.762-.747 1.356-1.638 1.783-2.675s.64-2.188.64-3.454c0-1.295-.213-2.47-.64-3.522a7.869 7.869 0 0 0-1.783-2.698zm-.994 8.53a5.657 5.657 0 0 1-1.132 1.898 5.252 5.252 0 0 1-1.761 1.258c-.686.305-1.449.457-2.287.457s-1.597-.152-2.276-.457a5.285 5.285 0 0 1-1.75-1.258 5.648 5.648 0 0 1-1.131-1.898 6.954 6.954 0 0 1-.4-2.401c0-.808.133-1.563.4-2.264a5.601 5.601 0 0 1 1.132-1.84 5.212 5.212 0 0 1 1.75-1.236c.678-.297 1.436-.446 2.275-.446s1.6.149 2.287.446a5.18 5.18 0 0 1 1.76 1.235 5.61 5.61 0 0 1 1.133 1.841c.266.701.4 1.456.4 2.264 0 .869-.134 1.67-.4 2.401zm9.044-10.383h-2.882v16.192h9.766v-2.608h-6.884V267.86zm11.869 9.194h7.433v-2.607h-7.433v-3.98h7.844v-2.607H61.077v16.192h11.137v-2.608h-8.256v-4.39zm20.741 0h7.433v-2.607h-7.433v-3.98h7.844v-2.607H81.818v16.192h11.137v-2.608h-8.256v-4.39zm21.176.96c0 .397-.06.812-.182 1.247a3.501 3.501 0 0 1-.607 1.2 3.226 3.226 0 0 1-1.12.903c-.465.237-1.04.355-1.726.355-.687 0-1.262-.118-1.727-.355a3.221 3.221 0 0 1-1.12-.903c-.283-.365-.485-.766-.607-1.2s-.183-.85-.183-1.246V267.86h-2.881v10.245c0 .977.164 1.857.491 2.642s.785 1.452 1.373 2a6.162 6.162 0 0 0 2.07 1.27 7.312 7.312 0 0 0 2.584.447c.93 0 1.79-.15 2.584-.447a6.05 6.05 0 0 0 2.058-1.27c.579-.548 1.036-1.215 1.372-2s.503-1.665.503-2.642V267.86h-2.882v10.155zm238.404 6.038h2.881V267.86h-2.88v16.192zm-221.287-8.599c.648-.793.972-1.776.972-2.95 0-.915-.168-1.67-.503-2.264-.336-.595-.785-1.067-1.35-1.418s-1.208-.598-1.931-.743a11.489 11.489 0 0 0-2.253-.218H112.3v16.192h2.882v-6.86h2.104l3.75 6.86h3.476l-4.3-7.159c1.205-.167 2.131-.647 2.78-1.44zm-4.333-.79c-.412.039-.824.059-1.235.059h-2.241v-4.392h2.492c.366 0 .743.023 1.133.07.388.045.743.14 1.063.284.32.146.58.363.777.653.198.29.298.67.298 1.143 0 .534-.107.95-.32 1.246a1.936 1.936 0 0 1-.835.664 3.78 3.78 0 0 1-1.132.274zm21.93-4.95a7.599 7.599 0 0 0-2.72-1.703c-1.053-.39-2.211-.577-3.476-.56-1.251 0-2.398.201-3.442.605a7.788 7.788 0 0 0-2.7 1.726 7.951 7.951 0 0 0-1.771 2.71c-.427 1.06-.64 2.238-.64 3.533 0 1.266.213 2.417.64 3.453a7.872 7.872 0 0 0 1.772 2.665 7.861 7.861 0 0 0 2.699 1.715c1.044.404 2.191.607 3.442.607 1.265-.016 2.423-.234 3.476-.653a8.147 8.147 0 0 0 2.72-1.749c.763-.747 1.358-1.638 1.784-2.675s.64-2.188.64-3.454c0-1.295-.213-2.47-.64-3.522a7.869 7.869 0 0 0-1.783-2.698zm-.994 8.53a5.657 5.657 0 0 1-1.132 1.898 5.252 5.252 0 0 1-1.76 1.258c-.687.305-1.45.457-2.288.457s-1.597-.152-2.275-.457a5.285 5.285 0 0 1-1.75-1.258 5.648 5.648 0 0 1-1.132-1.898 6.954 6.954 0 0 1-.4-2.401c0-.808.133-1.563.4-2.264a5.601 5.601 0 0 1 1.132-1.84 5.212 5.212 0 0 1 1.75-1.236c.678-.297 1.437-.446 2.275-.446s1.601.149 2.287.446a5.18 5.18 0 0 1 1.76 1.235 5.61 5.61 0 0 1 1.133 1.841c.267.701.4 1.456.4 2.264 0 .869-.133 1.67-.4 2.401zm15.768-9.388c-.55-.358-1.186-.613-1.91-.765s-1.475-.23-2.252-.23h-5.443v16.192h2.881v-6.7h2.058c.854 0 1.674-.062 2.459-.184.785-.121 1.475-.355 2.07-.697a3.769 3.769 0 0 0 1.418-1.453c.35-.625.525-1.448.525-2.47 0-.899-.164-1.65-.491-2.252a3.94 3.94 0 0 0-1.315-1.44zm-1.567 5.02c-.236.306-.541.534-.915.686s-.78.245-1.223.275-.869.046-1.28.046h-1.739v-4.552h2.058c.381 0 .778.023 1.19.07s.785.148 1.12.308c.335.16.61.389.824.685.213.298.32.699.32 1.202 0 .548-.119.975-.355 1.28zm15.425-10.405h-3.11l-2.264 3.293h2.15l3.224-3.293zm-6.61 13.584h7.433v-2.607h-7.432v-3.98h7.844v-2.607H159.73v16.192h11.138v-2.608h-8.256v-4.39zm13.973 0h7.433v-2.607h-7.433v-3.98h7.845v-2.607h-10.726v16.192h11.137v-2.608h-8.256v-4.39zm22.8 2.836h-.045l-7.844-12.03h-3.82v16.192h2.882v-12.418h.046l8.004 12.418h3.66V267.86h-2.882v12.03zm18.204 0h-.046l-7.844-12.03h-3.819v16.192h2.882v-12.418h.046l8.004 12.418h3.659V267.86h-2.882v12.03zm9.376-2.836h7.432v-2.607h-7.432v-3.98h7.844v-2.607h-10.726v16.192h11.138v-2.608h-8.256v-4.39zm29.958-7.204a7.511 7.511 0 0 0-2.63-1.498 9.76 9.76 0 0 0-3.087-.492h-6.38v16.192h6.036c.976 0 1.971-.164 2.985-.492a8.697 8.697 0 0 0 2.767-1.487c.83-.663 1.51-1.5 2.035-2.516.526-1.013.79-2.213.79-3.601 0-1.372-.23-2.565-.687-3.58-.457-1.013-1.067-1.855-1.83-2.526zm-1.018 8.633a4.566 4.566 0 0 1-1.406 1.693c-.595.434-1.292.754-2.093.96s-1.65.308-2.55.308h-2.15v-10.976h2.63a9.06 9.06 0 0 1 2.436.308c.74.206 1.38.527 1.92.961s.965 1.002 1.27 1.703c.305.701.457 1.54.457 2.516 0 .991-.171 1.834-.514 2.527zm5.66-4.585h2.447l1.944-6.038h-2.79l-1.602 6.038zm7.317 10.154h2.882V267.86h-2.882v16.192zm18.136-4.162h-.046l-7.845-12.03h-3.818v16.192h2.88v-12.418h.047l8.004 12.418h3.659V267.86h-2.881v12.03zm4.847-9.422h4.963v13.584h2.88v-13.584h4.964v-2.608h-12.807v2.608zm17.654 6.586h7.432v-2.607h-7.432v-3.98h7.844v-2.607h-10.725v16.192h11.136v-2.608h-8.255v-4.39zm13.973-9.194h-2.882v16.192h9.765v-2.608h-6.883V267.86zm11.87 0h-2.883v16.192h9.765v-2.608h-6.883V267.86zm23.53 9.331h3.317v3.819c-.503.29-1.08.504-1.727.64a9.946 9.946 0 0 1-2.069.206c-.839 0-1.598-.152-2.275-.457a5.287 5.287 0 0 1-1.75-1.258c-.489-.534-.866-1.167-1.132-1.898s-.4-1.532-.4-2.401c0-.808.133-1.563.4-2.264s.643-1.315 1.132-1.84a5.214 5.214 0 0 1 1.75-1.236c.677-.297 1.436-.446 2.275-.446.823 0 1.605.137 2.344.412s1.368.663 1.887 1.166l2.126-2.15a7.176 7.176 0 0 0-2.904-1.59 13.1 13.1 0 0 0-3.476-.445c-1.25 0-2.398.202-3.442.606a7.773 7.773 0 0 0-2.698 1.726c-.755.748-1.346 1.651-1.772 2.71-.427 1.06-.641 2.238-.641 3.533 0 1.266.214 2.417.64 3.453a7.874 7.874 0 0 0 1.773 2.665 7.845 7.845 0 0 0 2.698 1.715c1.044.404 2.192.607 3.442.607 2.47 0 4.703-.534 6.7-1.602v-8.278h-6.197v2.607zm12.488-.137h7.431v-2.607h-7.431v-3.98h7.844v-2.607h-10.726v16.192h11.137v-2.608h-8.255v-4.39zm22.8 2.836h-.046l-7.844-12.03h-3.82v16.192h2.883v-12.418h.044l8.005 12.418h3.659V267.86h-2.881v12.03zm16.11 1.498a4.18 4.18 0 0 1-1.91.468c-.838 0-1.597-.152-2.275-.457a5.287 5.287 0 0 1-1.75-1.258c-.488-.534-.865-1.167-1.131-1.898s-.4-1.532-.4-2.401c0-.808.133-1.563.4-2.264s.643-1.315 1.131-1.84a5.214 5.214 0 0 1 1.75-1.236c.678-.297 1.437-.446 2.276-.446.563 0 1.124.107 1.68.32.557.214 1.132.64 1.727 1.281l2.241-1.646c-.808-.93-1.68-1.59-2.618-1.979s-1.956-.583-3.054-.583c-1.25 0-2.397.202-3.441.606a7.773 7.773 0 0 0-2.698 1.726c-.755.748-1.346 1.651-1.773 2.71-.426 1.06-.64 2.238-.64 3.533 0 1.266.214 2.417.64 3.453a7.874 7.874 0 0 0 1.773 2.665 7.845 7.845 0 0 0 2.698 1.715c1.044.404 2.191.607 3.441.607 1.19 0 2.31-.23 3.363-.687 1.051-.457 1.943-1.19 2.675-2.195l-2.378-1.692c-.535.686-1.11 1.185-1.727 1.498zm8.93-4.334h7.432v-2.607h-7.431v-3.98h7.843v-2.607h-10.725v16.192h11.137v-2.608h-8.255v-4.39zm27.35-13.584h-3.11l-2.264 3.293h2.15l3.224-3.293zm-6.608 13.584h7.432v-2.607h-7.432v-3.98h7.844v-2.607h-10.726v16.192h11.137v-2.608h-8.255v-4.39zm20.707 4.334a4.18 4.18 0 0 1-1.91.468c-.838 0-1.597-.152-2.275-.457a5.287 5.287 0 0 1-1.75-1.258c-.488-.534-.865-1.167-1.131-1.898s-.4-1.532-.4-2.401c0-.808.133-1.563.4-2.264s.643-1.315 1.131-1.84a5.214 5.214 0 0 1 1.75-1.236c.678-.297 1.437-.446 2.276-.446.563 0 1.124.107 1.68.32.557.214 1.132.64 1.727 1.281l2.241-1.646c-.808-.93-1.68-1.59-2.618-1.979s-1.956-.583-3.054-.583c-1.25 0-2.397.202-3.441.606a7.773 7.773 0 0 0-2.698 1.726c-.755.748-1.346 1.651-1.773 2.71-.427 1.06-.64 2.238-.64 3.533 0 1.266.213 2.417.64 3.453a7.874 7.874 0 0 0 1.773 2.665 7.845 7.845 0 0 0 2.698 1.715c1.044.404 2.191.607 3.441.607 1.19 0 2.31-.23 3.363-.687 1.051-.457 1.943-1.19 2.675-2.195l-2.379-1.692c-.534.686-1.109 1.185-1.726 1.498zm19.93-11.675a7.588 7.588 0 0 0-2.721-1.703c-1.052-.39-2.211-.577-3.477-.56-1.25 0-2.397.201-3.441.605a7.773 7.773 0 0 0-2.698 1.726c-.755.748-1.346 1.651-1.773 2.71-.427 1.06-.64 2.238-.64 3.533 0 1.266.213 2.417.64 3.453a7.874 7.874 0 0 0 1.773 2.665 7.845 7.845 0 0 0 2.698 1.715c1.044.404 2.191.607 3.441.607 1.266-.016 2.425-.234 3.477-.653s1.959-1.002 2.72-1.749c.763-.747 1.358-1.638 1.785-2.675s.64-2.188.64-3.454c0-1.295-.213-2.47-.64-3.522a7.863 7.863 0 0 0-1.784-2.698zm-.995 8.53a5.672 5.672 0 0 1-1.131 1.898 5.256 5.256 0 0 1-1.762 1.258c-.686.305-1.448.457-2.286.457-.84 0-1.598-.152-2.276-.457a5.287 5.287 0 0 1-1.75-1.258c-.488-.534-.865-1.167-1.131-1.898s-.4-1.532-.4-2.401c0-.808.133-1.563.4-2.264s.643-1.315 1.131-1.84a5.214 5.214 0 0 1 1.75-1.236c.678-.297 1.437-.446 2.276-.446.838 0 1.6.149 2.286.446a5.184 5.184 0 0 1 1.762 1.235c.487.526.864 1.14 1.131 1.841.267.701.4 1.456.4 2.264 0 .869-.133 1.67-.4 2.401zm17.873 1.647h-.046l-7.844-12.03h-3.82v16.192h2.882v-12.418h.045l8.005 12.418h3.658V267.86h-2.88v12.03zm20.375-10.177a7.588 7.588 0 0 0-2.721-1.703c-1.052-.39-2.211-.577-3.477-.56-1.25 0-2.397.201-3.441.605a7.773 7.773 0 0 0-2.698 1.726c-.755.748-1.346 1.651-1.773 2.71-.427 1.06-.64 2.238-.64 3.533 0 1.266.213 2.417.64 3.453a7.874 7.874 0 0 0 1.773 2.665 7.845 7.845 0 0 0 2.698 1.715c1.044.404 2.191.607 3.441.607 1.266-.016 2.425-.234 3.477-.653s1.959-1.002 2.72-1.749c.763-.747 1.358-1.638 1.785-2.675s.64-2.188.64-3.454c0-1.295-.214-2.47-.64-3.522a7.863 7.863 0 0 0-1.784-2.698zm-.995 8.53a5.672 5.672 0 0 1-1.131 1.898 5.256 5.256 0 0 1-1.762 1.258c-.686.305-1.448.457-2.286.457-.84 0-1.598-.152-2.276-.457a5.287 5.287 0 0 1-1.75-1.258c-.488-.534-.865-1.167-1.132-1.898s-.4-1.532-.4-2.401c0-.808.134-1.563.4-2.264s.644-1.315 1.132-1.84a5.214 5.214 0 0 1 1.75-1.236c.678-.297 1.437-.446 2.276-.446.838 0 1.6.149 2.286.446a5.184 5.184 0 0 1 1.762 1.235c.487.526.864 1.14 1.131 1.841.267.701.4 1.456.4 2.264 0 .869-.133 1.67-.4 2.401zm14.945.96l-4.323-11.343h-4.39v16.192h2.744v-13.448h.046l4.917 13.448h2.013l4.917-13.448h.044v13.448h2.745V267.86h-4.345l-4.368 11.343zm12.326 4.849h2.88V267.86h-2.88v16.192zm19.164-2.378c.38-.23.773-.511 1.178-.847a5.909 5.909 0 0 0 1.108-1.246 6.6 6.6 0 0 0 .813-1.715c.205-.648.308-1.4.308-2.253 0-1.19-.225-2.283-.675-3.282a7.972 7.972 0 0 0-1.84-2.584 8.49 8.49 0 0 0-2.71-1.692 8.914 8.914 0 0 0-3.283-.606 8.913 8.913 0 0 0-3.28.606 8.49 8.49 0 0 0-2.71 1.692 7.957 7.957 0 0 0-1.842 2.584c-.45.999-.674 2.093-.674 3.282 0 1.312.224 2.49.674 3.533a7.688 7.688 0 0 0 1.853 2.653 8.14 8.14 0 0 0 2.79 1.67c1.074.388 2.244.583 3.51.583h9.422v-2.333h-4.642v-.045zm-1.167-1.865a5.226 5.226 0 0 1-1.75 1.2c-.678.29-1.413.435-2.206.435s-1.52-.144-2.184-.434a5.273 5.273 0 0 1-1.726-1.2c-.489-.511-.87-1.12-1.144-1.83s-.412-1.475-.412-2.298c0-.808.138-1.555.412-2.242a5.52 5.52 0 0 1 1.132-1.783c.48-.504 1.052-.895 1.715-1.178s1.384-.423 2.161-.423c.823 0 1.574.141 2.253.423a5.17 5.17 0 0 1 1.749 1.178 5.42 5.42 0 0 1 1.144 1.783c.274.687.412 1.434.412 2.242 0 .823-.138 1.59-.412 2.298s-.656 1.319-1.144 1.83zm17.998-1.794c0 .396-.06.811-.183 1.246s-.324.835-.606 1.2a3.226 3.226 0 0 1-1.12.903c-.466.237-1.041.355-1.727.355-.686 0-1.261-.118-1.726-.355a3.22 3.22 0 0 1-1.121-.903 3.473 3.473 0 0 1-.606-1.2 4.606 4.606 0 0 1-.183-1.246V267.86h-2.881v10.245c0 .977.163 1.857.49 2.642s.786 1.452 1.373 2 1.277.973 2.07 1.27a7.305 7.305 0 0 0 2.584.447c.93 0 1.791-.15 2.584-.447a6.052 6.052 0 0 0 2.059-1.27 5.932 5.932 0 0 0 1.372-2c.335-.785.503-1.665.503-2.642V267.86h-2.882v10.155zm9.308 3.43v-4.391h7.431v-2.607h-7.431v-3.98h7.843v-2.607h-10.725v16.192h11.137v-2.608h-8.255z" fill="#7f898a"/><path fill="#293b48" d="M.177 297.085H597.25v10.244H.177z"/></svg>